<svg width="40" height="40" viewBox="0 0 40 40" fill="none" xmlns="http://www.w3.org/2000/svg">
<path d="M6.53942 19.3837C3.48286 10.0713 9.57278 0.75 19.9984 0.75C25.2484 0.75 29.3604 3.05587 31.7875 6.50741C34.2184 9.96426 34.9949 14.6217 33.459 19.3875C31.899 24.2279 28.4288 29.2353 25.3022 33.0675C23.7458 34.9752 22.2881 36.5754 21.22 37.6981C20.7182 38.2256 20.3028 38.6472 20.0041 38.9453C19.7049 38.6422 19.2876 38.2126 18.783 37.6756C17.7141 36.538 16.2556 34.9199 14.6984 33C11.5698 29.1426 8.09858 24.134 6.53942 19.3837Z" fill="#F6ABB6" stroke="#96154A" stroke-width="1.5"/>
<path d="M22.8069 16.2217C20.7041 15.8466 19.3017 16.9734 19.3017 18.7994V23.2294L16 25.5081V18.798C16 15.1447 18.5265 12.5933 22.8069 13.1221V16.2217Z" fill="#96154A"/>
<path d="M21.6919 9.89243C21.693 10.268 21.5826 10.6355 21.3748 10.9484C21.1669 11.2612 20.8708 11.5054 20.5241 11.6499C20.1774 11.7944 19.7956 11.8327 19.4271 11.7601C19.0586 11.6875 18.7199 11.5072 18.4539 11.242C18.1879 10.9768 18.0066 10.6386 17.9329 10.2703C17.8592 9.90196 17.8965 9.52007 18.0399 9.17294C18.1834 8.8258 18.4267 8.52905 18.7389 8.32025C19.0512 8.11146 19.4183 8 19.794 8C20.0433 7.99982 20.2901 8.04879 20.5205 8.14411C20.7509 8.23942 20.9602 8.37922 21.1364 8.5555C21.3127 8.73178 21.4525 8.94108 21.5478 9.17143C21.6431 9.40179 21.6921 9.64867 21.6919 9.89797" fill="#96154A"/>
<path d="M27.8672 14.8208C27.8638 14.9151 27.829 15.0057 27.768 15.079C27.707 15.1523 27.6232 15.2043 27.5291 15.2273C26.7604 15.3591 25.9739 15.3591 25.2053 15.2273C25.1113 15.2042 25.0275 15.1521 24.9666 15.0788C24.9056 15.0055 24.8708 14.915 24.8672 14.8208V12.8326C24.8709 12.7384 24.9058 12.6478 24.9667 12.5744C25.0276 12.5009 25.1113 12.4486 25.2053 12.425C25.9739 12.2932 26.7604 12.2932 27.5291 12.425C27.6232 12.4484 27.707 12.5007 27.7679 12.5742C27.8289 12.6477 27.8637 12.7383 27.8672 12.8326V14.8208Z" fill="#96154A"/>
</svg>